<svg xmlns="http://www.w3.org/2000/svg" xmlns:xlink="http://www.w3.org/1999/xlink" width="595.3" height="367.54" viewBox="0 0 595.3 367.54"><defs><style>.a{fill:none;}.b{fill:#e8ecf1;}.c{clip-path:url(#a);}.d{fill:#fff;}</style><clipPath id="a"><rect class="a" width="595.3" height="367.54"/></clipPath></defs><g transform="translate(297.65 183.77)"><g transform="translate(-297.65 -183.77)"><rect class="b" width="595.3" height="367.54"/><g class="c"><path class="d" d="M325.2,77.4v9c6.1,0,14.1,4.7,19.7,8.7L220.7,150.2c.8-8.2,3.3-19.2,8.7-21.5h.2L254.7,117l10.3-4.8-6.1-7.8,26.6-11.8,1.7,10,10.6-4.7L322.4,87a7.3,7.3,0,0,1,2.9-.5v-9m0,0a16.1,16.1,0,0,0-6.6,1.3L294,89.5a7.8,7.8,0,0,0-10.9-5.9l-29.3,13a7.8,7.8,0,0,0-4,10.4,7.5,7.5,0,0,0,1,1.7l-25.1,11.7c-15.2,6.7-14.8,37.8-14,39.6a3.6,3.6,0,0,0,4.7,1.8l140-62.1a3.6,3.6,0,0,0,1.8-4.8c-.7-1.6-18.5-17.7-33.2-17.7"/><path class="d" d="M358.4,185.4l1.2,79.7a6.7,6.7,0,0,1-6.6,6.8l-120.8,1.8h-.1a6.7,6.7,0,0,1-6.7-6.6l-1.2-79.7,134.2-2m9.4-9.1h0l-153.2,2.3a3.6,3.6,0,0,0,.1,7.2h.6l1.2,81.5a15.7,15.7,0,0,0,15.7,15.5h.2L353.2,281a15.7,15.7,0,0,0,15.5-16l-1.2-81.5h.5a3.6,3.6,0,0,0-.1-7.2"/><path class="d" d="M380.7,124.1a7.1,7.1,0,0,1,7,6.5,7,7,0,0,1-6.5,7.6h-.6a7,7,0,1,1-.5-14h.6m0-9h-1.3a16.013,16.013,0,1,0,1.3,32H382a16.013,16.013,0,0,0-1.3-32"/><path class="d" d="M329.5,131.9a10.666,10.666,0,0,1,.8,21.3h-.9a10.666,10.666,0,0,1-.8-21.3h.9m0-9H328a19.7,19.7,0,0,0,1.5,39.3h1.6a19.7,19.7,0,0,0-1.5-39.3"/><path class="d" d="M406.7,88h1a4.2,4.2,0,0,1-1,8.3h-1a4.2,4.2,0,0,1,1-8.3m0-8a12.2,12.2,0,1,0,2.8.3,12.2,12.2,0,0,0-2.8-.3"/></g></g></g></svg>